<svg width="690" height="144" xmlns="http://www.w3.org/2000/svg">
  <defs>
    <linearGradient x1="50%" y1="2.859%" x2="50%" y2="100%" id="a">
      <stop stop-color="#FF0844" offset="0%"/>
      <stop stop-color="#F49B67" offset="100%"/>
    </linearGradient>
  </defs>
  <path d="M115.628 39.744c7.2 0 12.84 1.848 16.92 5.544 4.08 3.696 6.12 8.712 6.12 15.048 0 1.152-.072 2.304-.216 3.456-.144 1.152-.312 2.4-.504 3.744l-7.344 41.328h-9.648l6.624-37.296c.576-2.976.864-5.808.864-8.496 0-4.704-1.128-8.424-3.384-11.16-2.256-2.736-6.216-4.104-11.88-4.104-2.592 0-5.184.528-7.776 1.584-2.592 1.056-4.992 2.688-7.2 4.896-2.208 2.208-4.152 4.968-5.832 8.28-1.68 3.312-2.904 7.224-3.672 11.736l-6.048 34.56h-9.648L92.156 0h9.648l-9.216 52.56h.288c2.496-3.936 5.76-7.056 9.792-9.36 4.032-2.304 8.352-3.456 12.96-3.456zm50.496 58.464h.288l32.832-56.736h10.8l-50.976 84.816c-3.168 5.184-6.432 9.336-9.792 12.456-3.36 3.12-7.536 4.68-12.528 4.68-2.784 0-5.52-.288-8.208-.864l1.44-8.928c2.112.768 4.224 1.152 6.336 1.152 3.072 0 5.736-1.032 7.992-3.096 2.256-2.064 4.488-5.016 6.696-8.856l8.352-14.112-14.112-67.248h10.08l10.8 56.736zm60.824-45.792c1.056-1.728 2.448-3.36 4.176-4.896a29.94 29.94 0 0 1 5.832-4.032 33.032 33.032 0 0 1 6.984-2.736 29.78 29.78 0 0 1 7.776-1.008c4.608 0 8.76.696 12.456 2.088 3.696 1.392 6.888 3.384 9.576 5.976 2.688 2.592 4.752 5.664 6.192 9.216 1.44 3.552 2.16 7.488 2.16 11.808 0 5.76-1.008 11.184-3.024 16.272-2.016 5.088-4.776 9.504-8.28 13.248-3.504 3.744-7.68 6.72-12.528 8.928-4.848 2.208-10.104 3.312-15.768 3.312-4.896 0-9.48-1.104-13.752-3.312-4.272-2.208-7.512-5.472-9.72-9.792h-.288l-8.208 45.936h-9.648l18.144-101.952h9.648l-2.016 10.944h.288zm45.072 16.992c0-2.976-.456-5.784-1.368-8.424-.912-2.64-2.28-4.944-4.104-6.912-1.824-1.968-4.032-3.504-6.624-4.608-2.592-1.104-5.616-1.656-9.072-1.656-4.224 0-8.16.864-11.808 2.592a29.472 29.472 0 0 0-9.504 7.128c-2.688 3.024-4.8 6.528-6.336 10.512-1.536 3.984-2.304 8.184-2.304 12.6 0 3.168.504 6.072 1.512 8.712 1.008 2.64 2.472 4.944 4.392 6.912 1.92 1.968 4.2 3.48 6.84 4.536 2.64 1.056 5.64 1.584 9 1.584 4.416 0 8.424-.864 12.024-2.592 3.6-1.728 6.696-4.08 9.288-7.056 2.592-2.976 4.584-6.456 5.976-10.44 1.392-3.984 2.088-8.28 2.088-12.888zm28.848 8.352a22.456 22.456 0 0 0-.216 1.656 16.725 16.725 0 0 0-.072 1.512c0 3.168.552 6.048 1.656 8.64 1.104 2.592 2.64 4.848 4.608 6.768 1.968 1.92 4.272 3.408 6.912 4.464 2.64 1.056 5.496 1.584 8.568 1.584 5.28 0 9.888-1.176 13.824-3.528 3.936-2.352 7.104-5.112 9.504-8.28l6.048 5.76c-3.936 4.704-8.496 8.256-13.68 10.656-5.184 2.4-10.704 3.6-16.56 3.6-4.32 0-8.352-.672-12.096-2.016-3.744-1.344-6.984-3.264-9.72-5.76-2.736-2.496-4.896-5.592-6.48-9.288-1.584-3.696-2.376-7.896-2.376-12.6 0-5.472 1.008-10.704 3.024-15.696 2.016-4.992 4.776-9.36 8.28-13.104 3.504-3.744 7.632-6.744 12.384-9 4.752-2.256 9.864-3.384 15.336-3.384 9.216 0 16.2 2.448 20.952 7.344 4.752 4.896 7.128 11.232 7.128 19.008 0 1.152-.096 2.904-.288 5.256-.192 2.352-.528 4.488-1.008 6.408h-55.728zm47.088-7.2c.096-.768.168-1.608.216-2.52.048-.912.072-1.752.072-2.52 0-5.184-1.584-9.432-4.752-12.744-3.168-3.312-7.824-4.968-13.968-4.968-3.552 0-6.84.6-9.864 1.8-3.024 1.2-5.712 2.856-8.064 4.968a31.184 31.184 0 0 0-5.976 7.272 29.003 29.003 0 0 0-3.456 8.712h45.792zm24.84-14.256c.384-1.824.792-4.176 1.224-7.056.432-2.88.744-5.472.936-7.776h9.216c-.192 1.824-.432 3.84-.72 6.048s-.576 4.032-.864 5.472h.288c2.496-3.936 5.664-7.128 9.504-9.576 3.84-2.448 8.16-3.672 12.96-3.672 1.248 0 2.352.048 3.312.144.96.096 1.968.288 3.024.576l-2.304 9.216c-.48-.192-1.368-.384-2.664-.576a26.987 26.987 0 0 0-3.96-.288c-2.592 0-5.136.48-7.632 1.44-2.496.96-4.776 2.472-6.84 4.536-2.064 2.064-3.888 4.704-5.472 7.92-1.584 3.216-2.76 7.08-3.528 11.592l-6.048 34.56h-9.648l9.216-52.56zm66.984 54.288c-4.512 0-8.688-.72-12.528-2.16-3.84-1.44-7.128-3.432-9.864-5.976-2.736-2.544-4.872-5.616-6.408-9.216-1.536-3.6-2.304-7.56-2.304-11.88 0-5.664.984-11.016 2.952-16.056 1.968-5.04 4.728-9.456 8.28-13.248 3.552-3.792 7.776-6.792 12.672-9 4.896-2.208 10.272-3.312 16.128-3.312 4.608 0 8.808.696 12.6 2.088 3.792 1.392 7.056 3.384 9.792 5.976 2.736 2.592 4.872 5.664 6.408 9.216 1.536 3.552 2.304 7.488 2.304 11.808 0 5.76-.984 11.184-2.952 16.272-1.968 5.088-4.728 9.504-8.28 13.248-3.552 3.744-7.776 6.72-12.672 8.928-4.896 2.208-10.272 3.312-16.128 3.312zm29.952-41.184c0-3.072-.48-5.928-1.44-8.568-.96-2.64-2.376-4.92-4.248-6.84-1.872-1.92-4.152-3.432-6.84-4.536-2.688-1.104-5.712-1.656-9.072-1.656-4.224 0-8.112.888-11.664 2.664a29.252 29.252 0 0 0-9.216 7.2c-2.592 3.024-4.632 6.528-6.12 10.512-1.488 3.984-2.232 8.184-2.232 12.6 0 3.072.48 5.928 1.44 8.568.96 2.64 2.376 4.92 4.248 6.84 1.872 1.92 4.128 3.432 6.768 4.536 2.64 1.104 5.64 1.656 9 1.656 4.32 0 8.28-.888 11.88-2.664 3.6-1.776 6.696-4.152 9.288-7.128 2.592-2.976 4.608-6.456 6.048-10.44 1.44-3.984 2.16-8.232 2.16-12.744zm35.792-27.936c-.192 1.824-.432 3.84-.72 6.048s-.576 4.032-.864 5.472h.288c2.592-4.128 5.928-7.368 10.008-9.72 4.08-2.352 8.424-3.528 13.032-3.528 7.296 0 12.984 1.848 17.064 5.544 4.08 3.696 6.12 8.712 6.12 15.048 0 1.152-.072 2.304-.216 3.456-.144 1.152-.312 2.4-.504 3.744l-7.344 41.328h-9.648l6.624-37.296c.576-2.976.864-5.808.864-8.496 0-4.704-1.104-8.424-3.312-11.16-2.208-2.736-6.096-4.104-11.664-4.104-2.592 0-5.184.528-7.776 1.584-2.592 1.056-5.016 2.688-7.272 4.896-2.256 2.208-4.248 4.968-5.976 8.28-1.728 3.312-2.976 7.224-3.744 11.736l-6.048 34.56h-9.648l9.216-52.56c.384-1.824.792-4.176 1.224-7.056.432-2.88.744-5.472.936-7.776h9.36zm100.144 14.832c-1.344-2.496-3.36-4.536-6.048-6.12-2.688-1.584-5.904-2.376-9.648-2.376-1.728 0-3.528.192-5.4.576a18.534 18.534 0 0 0-5.184 1.872c-1.584.864-2.88 1.992-3.888 3.384s-1.512 3.096-1.512 5.112c0 1.824.312 3.312.936 4.464.624 1.152 1.512 2.136 2.664 2.952 1.152.816 2.544 1.536 4.176 2.16 1.632.624 3.504 1.224 5.616 1.8 6.624 1.92 11.664 4.344 15.12 7.272 3.456 2.928 5.184 7.08 5.184 12.456 0 3.648-.816 6.792-2.448 9.432-1.632 2.64-3.696 4.8-6.192 6.48-2.496 1.68-5.28 2.904-8.352 3.672-3.072.768-6.096 1.152-9.072 1.152-5.664 0-10.968-1.056-15.912-3.168-4.944-2.112-8.808-5.328-11.592-9.648l8.352-5.472c1.632 2.784 4.08 5.16 7.344 7.128 3.264 1.968 7.056 2.952 11.376 2.952a29.47 29.47 0 0 0 6.192-.648c2.016-.432 3.816-1.104 5.4-2.016 1.584-.912 2.856-2.112 3.816-3.6s1.44-3.24 1.44-5.256c0-3.552-1.416-6.264-4.248-8.136-2.832-1.872-6.888-3.672-12.168-5.4a77.846 77.846 0 0 1-6.048-2.304 21.315 21.315 0 0 1-5.472-3.384 16.335 16.335 0 0 1-3.96-5.04c-1.008-1.968-1.512-4.344-1.512-7.128 0-3.456.792-6.432 2.376-8.928a19.89 19.89 0 0 1 6.048-6.12c2.448-1.584 5.208-2.76 8.28-3.528a37.872 37.872 0 0 1 9.216-1.152c5.184 0 9.816 1.008 13.896 3.024s7.032 4.704 8.856 8.064l-7.632 5.472zM0 74.304l75.38-32.832-1.724 8.928-55.98 23.904L64.95 98.856l-1.722 9.864L0 74.304zm688.356-.375L613 110.592l1.742-9.981 55.939-26.682-47.234-21.774 1.704-8.811 63.205 30.585z" fill="url(#a)" fill-rule="evenodd"/>
</svg>
